<?xml version="1.0" encoding="UTF-8" ?>
<svg version="1.1" width="120" height="110" xmlns="http://www.w3.org/2000/svg" shape-rendering="crispEdges">
<rect x="0" y="0" width="20" height="10" fill="#39A4C6" />
<rect x="20" y="0" width="10" height="10" fill="#37859E" />
<rect x="30" y="0" width="10" height="10" fill="#39A4C6" />
<rect x="40" y="0" width="50" height="10" fill="#5AC2E3" />
<rect x="0" y="10" width="10" height="10" fill="#39A4C6" />
<rect x="10" y="10" width="10" height="10" fill="#37859E" />
<rect x="20" y="10" width="10" height="20" fill="#39A4C6" />
<rect x="30" y="10" width="10" height="10" fill="#47BADF" />
<rect x="40" y="10" width="10" height="10" fill="#9EE8FF" />
<rect x="50" y="10" width="10" height="20" fill="#5AC2E3" />
<rect x="60" y="10" width="10" height="10" fill="#9EE8FF" />
<rect x="70" y="10" width="10" height="40" fill="#5AC2E3" />
<rect x="80" y="10" width="10" height="10" fill="#9EE8FF" />
<rect x="90" y="10" width="10" height="40" fill="#5AC2E3" />
<rect x="10" y="20" width="10" height="30" fill="#39A4C6" />
<rect x="30" y="20" width="20" height="10" fill="#5AC2E3" />
<rect x="60" y="20" width="10" height="20" fill="#5AC2E3" />
<rect x="80" y="20" width="10" height="10" fill="#5AC2E3" />
<rect x="100" y="20" width="10" height="60" fill="#5AC2E3" />
<rect x="20" y="30" width="20" height="20" fill="#5AC2E3" />
<rect x="40" y="30" width="20" height="20" fill="#F3C49A" />
<rect x="80" y="30" width="10" height="20" fill="#F3C49A" />
<rect x="0" y="40" width="10" height="50" fill="#37859E" />
<rect x="60" y="40" width="10" height="20" fill="#F3C49A" />
<rect x="10" y="50" width="20" height="10" fill="#5AC2E3" />
<rect x="30" y="50" width="20" height="10" fill="#F3C49A" />
<rect x="50" y="50" width="10" height="20" fill="#1F795B" />
<rect x="70" y="50" width="10" height="10" fill="#F3C49A" />
<rect x="80" y="50" width="10" height="20" fill="#1F795B" />
<rect x="90" y="50" width="10" height="30" fill="#F3C49A" />
<rect x="110" y="50" width="10" height="20" fill="#5AC2E3" />
<rect x="10" y="60" width="10" height="10" fill="#47BADF" />
<rect x="20" y="60" width="10" height="20" fill="#5AC2E3" />
<rect x="30" y="60" width="10" height="20" fill="#F3C49A" />
<rect x="40" y="60" width="10" height="20" fill="#FFE9BE" />
<rect x="60" y="60" width="20" height="30" fill="#FFE9BE" />
<rect x="10" y="70" width="10" height="10" fill="#39A4C6" />
<rect x="50" y="70" width="10" height="10" fill="#5CCEA8" />
<rect x="80" y="70" width="10" height="10" fill="#5CCEA8" />
<rect x="110" y="70" width="10" height="10" fill="#47BADF" />
<rect x="10" y="80" width="10" height="20" fill="#37859E" />
<rect x="20" y="80" width="10" height="10" fill="#47BADF" />
<rect x="30" y="80" width="10" height="10" fill="#5AC2E3" />
<rect x="40" y="80" width="10" height="20" fill="#F3C49A" />
<rect x="50" y="80" width="10" height="10" fill="#FFE9BE" />
<rect x="80" y="80" width="10" height="10" fill="#FFE9BE" />
<rect x="90" y="80" width="10" height="10" fill="#5AC2E3" />
<rect x="100" y="80" width="10" height="10" fill="#39A4C6" />
<rect x="110" y="80" width="10" height="10" fill="#37859E" />
<rect x="0" y="90" width="10" height="10" fill="#FF6959" />
<rect x="20" y="90" width="10" height="10" fill="#39A4C6" />
<rect x="30" y="90" width="10" height="10" fill="#47BADF" />
<rect x="50" y="90" width="40" height="10" fill="#F3C49A" />
<rect x="90" y="90" width="10" height="10" fill="#39A4C6" />
<rect x="100" y="90" width="10" height="10" fill="#37859E" />
<rect x="0" y="100" width="10" height="10" fill="#E33D2B" />
<rect x="10" y="100" width="10" height="10" fill="#AA2416" />
<rect x="20" y="100" width="20" height="10" fill="#37859E" />
<rect x="40" y="100" width="10" height="10" fill="#5AC2E3" />
<rect x="50" y="100" width="10" height="10" fill="#FF6959" />
<rect x="60" y="100" width="10" height="10" fill="#E33D2B" />
<rect x="70" y="100" width="10" height="10" fill="#FF6959" />
<rect x="80" y="100" width="20" height="10" fill="#37859E" />
<rect x="100" y="100" width="10" height="10" fill="#2BB0B6" />
</svg>